HIERARCHY
ROOT Hips
{
	OFFSET 0.00000 0.00000 0.00000
	CHANNELS 6 Xposition Yposition Zposition Zrotation Yrotation Xrotation 
	JOINT LHipJoint
	{
		OFFSET 0 0 0
		CHANNELS 3 Zrotation Yrotation Xrotation
		JOINT LeftUpLeg
		{
			OFFSET 1.85590 -1.73949 0.84976
			CHANNELS 3 Zrotation Yrotation Xrotation
			JOINT LeftLeg
			{
				OFFSET 2.36836 -6.50702 0.00000
				CHANNELS 3 Zrotation Yrotation Xrotation
				JOINT LeftFoot
				{
					OFFSET 2.53268 -6.95849 0.00000
					CHANNELS 3 Zrotation Yrotation Xrotation
					JOINT LeftToeBase
					{
						OFFSET 0.15935 -0.43781 1.94506
						CHANNELS 3 Zrotation Yrotation Xrotation
						End Site
						{
							OFFSET 0.00000 -0.00000 1.00661
						}
					}
				}
			}
		}
	}
	JOINT RHipJoint
	{
		OFFSET 0 0 0
		CHANNELS 3 Zrotation Yrotation Xrotation
		JOINT RightUpLeg
		{
			OFFSET -1.68297 -1.73949 0.84976
			CHANNELS 3 Zrotation Yrotation Xrotation
			JOINT RightLeg
			{
				OFFSET -2.44709 -6.72334 0.00000
				CHANNELS 3 Zrotation Yrotation Xrotation
				JOINT RightFoot
				{
					OFFSET -2.43843 -6.69953 0.00000
					CHANNELS 3 Zrotation Yrotation Xrotation
					JOINT RightToeBase
					{
						OFFSET -0.20854 -0.57295 2.02172
						CHANNELS 3 Zrotation Yrotation Xrotation
						End Site
						{
							OFFSET -0.00000 -0.00000 1.05594
						}
					}
				}
			}
		}
	}
	JOINT LowerBack
	{
		OFFSET 0 0 0
		CHANNELS 3 Zrotation Yrotation Xrotation
		JOINT Spine
		{
			OFFSET -0.01560 2.23971 -0.03712
			CHANNELS 3 Zrotation Yrotation Xrotation
			JOINT Spine1
			{
				OFFSET 0.05490 2.19225 -0.19086
				CHANNELS 3 Zrotation Yrotation Xrotation
				JOINT Neck
				{
					OFFSET 0 0 0
					CHANNELS 3 Zrotation Yrotation Xrotation
					JOINT Neck1
					{
						OFFSET -0.12403 1.43168 0.27585
						CHANNELS 3 Zrotation Yrotation Xrotation
						JOINT Head
						{
							OFFSET 0.17855 1.46173 -0.32578
							CHANNELS 3 Zrotation Yrotation Xrotation
							End Site
							{
								OFFSET 0.07217 1.51590 -0.14537
							}
						}
					}
				}
				JOINT LeftShoulder
				{
					OFFSET 0 0 0
					CHANNELS 3 Zrotation Yrotation Xrotation
					JOINT LeftArm
					{
						OFFSET 3.27650 0.85634 0.05396
						CHANNELS 3 Zrotation Yrotation Xrotation
						JOINT LeftForeArm
						{
							OFFSET 4.96755 -0.00000 0.00000
							CHANNELS 3 Zrotation Yrotation Xrotation
							JOINT LeftHand
							{
								OFFSET 3.35751 -0.00000 0.00000
								CHANNELS 3 Zrotation Yrotation Xrotation
								JOINT LeftFingerBase
								{
									OFFSET 0 0 0
									CHANNELS 3 Zrotation Yrotation Xrotation
									JOINT LeftHandIndex1
									{
										OFFSET 0.79697 -0.00000 0.00000
										CHANNELS 3 Zrotation Yrotation Xrotation
										End Site
										{
											OFFSET 0.64254 -0.00000 0.00000
										}
									}
								}
								JOINT LThumb
								{
									OFFSET 0 0 0
									CHANNELS 3 Zrotation Yrotation Xrotation
									End Site
									{
										OFFSET 0.65235 -0.00000 0.65235
									}
								}
							}
						}
					}
				}
				JOINT RightShoulder
				{
					OFFSET 0 0 0
					CHANNELS 3 Zrotation Yrotation Xrotation
					JOINT RightArm
					{
						OFFSET -3.24434 1.02034 0.34688
						CHANNELS 3 Zrotation Yrotation Xrotation
						JOINT RightForeArm
						{
							OFFSET -5.21859 -0.00000 -0.00000
							CHANNELS 3 Zrotation Yrotation Xrotation
							JOINT RightHand
							{
								OFFSET -3.36504 -0.00000 0.00000
								CHANNELS 3 Zrotation Yrotation Xrotation
								JOINT RightFingerBase
								{
									OFFSET 0 0 0
									CHANNELS 3 Zrotation Yrotation Xrotation
									JOINT RightHandIndex1
									{
										OFFSET -0.62044 -0.00000 0.00000
										CHANNELS 3 Zrotation Yrotation Xrotation
										End Site
										{
											OFFSET -0.50022 -0.00000 0.00000
										}
									}
								}
								JOINT RThumb
								{
									OFFSET 0 0 0
									CHANNELS 3 Zrotation Yrotation Xrotation
									End Site
									{
										OFFSET -0.50786 -0.00000 0.50786
									}
								}
							}
						}
					}
				}
			}
		}
	}
}
MOTION
Frames: 14
Frame Time: .0083333
0.0 0.0 0.0 0 0 0 0 0 0 -21 0 0 0 0 0 0 0 0 0 0 0 0 0 0 21 0 0 0 0 0 0 0 0 0 0 0 0 0 0 0 0 0 0 0 0 0 0 -16 0 0 21 0 0 11 0 0 0 -8 0 0 0 0 0 0 0 0 0 0 0 0 0 0 0 0 0 0 0 0 8 0 0 0 0 0 0 0 0 0 0 0 0 0 0 0 0 0
0.0000 0.0000 0.0000 0.0000 0.0000 0.0000 0.0000 0.0000 0.0000 0.0000 0.0000 0.0000 0.0000 0.0000 0.0000 0.0000 0.0000 0.0000 0.0000 0.0000 0.0000 0.0000 0.0000 0.0000 0.0000 0.0000 0.0000 0.0000 0.0000 0.0000 -0.0000 -0.0000 0.0000 -0.0000 -0.0000 0.0000 0.0000 0.0000 0.0000 0.0000 0.0000 0.0000 0.0000 0.0000 0.0000 0.0000 0.0000 0.0000 0.0000 0.0000 0.0000 0.0000 0.0000 0.0000 0.0000 0.0000 0.0000 -0.0000 0.0000 -0.0000 -0.0000 0.0000 -0.0000 -0.0000 -0.0000 0.0000 -0.0000 -0.0000 0.0000 -0.0000 -0.0000 0.0000 0.0000 0.0000 0.0000 0.0000 0.0000 0.0000 0.0000 -0.0000 -0.0000 0.0000 -0.0000 -0.0000 0.0000 0.0000 0.0000 0.0000 0.0000 0.0000 0.0000 0.0000 0.0000 -0.0000 -0.0000 0.0000
8.0585 15.9634 -38.9720 -1.7549 0.3220 7.8235 0.0000 0.0000 0.0000 -16.7022 -1.2041 -31.0600 13.3200 18.8947 70.1165 0.0000 0.0000 0.0000 0.0000 0.0000 0.0000 0.0000 0.0000 0.0000 27.1658 10.8876 -16.2152 -2.7878 -10.3434 30.0960 -0.6411 8.9903 -14.6754 -0.1921 2.8224 -7.7847 -0.4371 0.1587 -2.5484 3.6903 0.2012 -1.0086 4.0490 0.1076 0.3791 -12.1094 -2.7057 -22.7318 6.4423 -1.2199 21.7109 4.1698 -0.7621 10.8942 0.0000 -0.0000 0.0000 -85.3654 5.4142 46.2072 20.1965 -30.8784 -5.6319 -0.0000 0.0000 -11.3783 10.6088 -24.0039 -4.3572 -7.1250 0.0000 -0.0000 -11.5041 6.0137 10.4535 0.0000 -0.0000 0.0000 78.2214 -7.3095 39.0444 -15.9278 25.4227 -3.6149 0.0000 -0.0000 -13.3035 -34.2441 -25.0370 16.0709 7.1250 -0.0000 -0.0000 -5.4831 -59.3646 1.9274
8.0677 15.9731 -38.7444 -1.7981 -0.5570 8.4009 0.0000 0.0000 0.0000 -16.8037 -1.6519 -33.5334 13.1262 18.8273 69.5170 0.0000 0.0000 0.0000 0.0000 0.0000 0.0000 0.0000 0.0000 0.0000 27.2231 10.7160 -16.0438 -2.7587 -10.2938 29.9336 -0.5690 9.5904 -14.0790 -0.0949 1.9869 -5.4694 -0.3056 0.5940 -2.7207 3.5165 0.7835 -1.2190 3.8105 0.4026 0.2209 -12.1019 -2.9559 -22.6850 6.3554 -1.5538 21.5656 4.0790 -0.9212 10.8679 -0.0000 0.0000 0.0000 -85.0868 6.2593 47.3729 19.9478 -30.5794 -5.5048 -0.0000 0.0000 -11.2858 10.4846 -22.6598 -4.0781 -7.1250 0.0000 -0.0000 -11.5462 7.3552 10.1875 -0.0000 0.0000 0.0000 78.3096 -6.4952 39.6818 -16.2707 25.8863 -3.7634 0.0000 -0.0000 -13.6551 -34.1859 -24.9379 15.9813 7.1250 -0.0000 -0.0000 -5.4316 -59.2385 1.8928
8.0745 15.9609 -38.5159 -1.8971 -0.6609 8.6407 0.0000 0.0000 0.0000 -16.7456 -2.5718 -35.4711 12.9625 18.7686 69.0090 0.0000 0.0000 0.0000 0.0000 0.0000 0.0000 0.0000 0.0000 0.0000 27.5606 10.0725 -15.0569 -2.6097 -10.0347 29.0893 -0.5607 9.6109 -13.9988 -0.0582 1.5573 -4.2836 0.0151 0.7736 -2.7098 3.3409 1.0182 -1.2806 3.4527 0.5197 0.1447 -12.0388 -3.0563 -22.8825 6.3753 -1.6986 21.7134 4.0584 -0.9807 10.9744 -0.0000 -0.0000 0.0000 -84.6426 7.1924 48.3610 19.8328 -30.4404 -5.4464 -0.0000 0.0000 -10.5623 10.4696 -21.7001 -3.9087 -7.1250 0.0000 -0.0000 -11.5372 8.3055 9.9591 -0.0000 -0.0000 0.0000 78.5148 -5.5774 40.1580 -16.7425 26.5171 -3.9717 0.0000 -0.0000 -14.1955 -34.2772 -24.9615 16.0467 7.1250 -0.0000 -0.0000 -5.5373 -59.2881 1.9364
8.0791 15.9192 -38.2806 -2.3503 -0.6061 8.6334 0.0000 0.0000 0.0000 -16.2044 -3.3692 -37.0348 12.7213 18.6792 68.2577 0.0000 0.0000 0.0000 0.0000 0.0000 0.0000 0.0000 0.0000 0.0000 28.3707 9.2868 -14.0331 -2.5405 -9.9111 28.6893 -0.5676 9.6934 -14.0908 -0.0174 0.8526 -2.3434 0.6220 0.8961 -2.5775 3.3608 1.1689 -1.2375 3.1328 0.5925 0.1178 -12.0795 -3.0330 -23.1090 6.4157 -1.6359 21.9520 4.0984 -0.9540 11.0996 -0.0000 -0.0000 0.0000 -84.3562 8.0749 49.1101 19.6776 -30.2519 -5.3679 -0.0000 0.0000 -9.9723 10.2358 -22.0613 -3.8800 -7.1250 0.0000 -0.0000 -11.6897 7.9721 10.1752 -0.0000 -0.0000 0.0000 78.4489 -4.7295 41.1108 -17.2974 27.2482 -4.2226 0.0000 -0.0000 -14.8821 -33.9947 -24.0419 15.3626 7.1250 -0.0000 -0.0000 -5.3654 -58.1826 1.7337
8.0760 16.0217 -38.0162 -2.4279 -0.8718 8.5536 0.0000 0.0000 0.0000 -15.9919 -3.9365 -39.8142 12.3864 18.5492 67.2083 0.0000 0.0000 0.0000 0.0000 0.0000 0.0000 0.0000 0.0000 0.0000 28.7132 8.7098 -12.6852 -2.4564 -9.7582 28.1972 -0.5880 9.7427 -14.3121 -0.0064 0.5156 -1.4169 0.7440 1.0622 -2.4795 3.3163 1.3852 -1.0749 3.0234 0.6988 0.2229 -12.3781 -3.1014 -23.5182 6.6414 -1.6317 22.1253 4.2416 -0.9485 11.2458 0.0000 -0.0000 0.0000 -84.2509 8.7706 49.6044 19.4614 -29.9879 -5.2595 -0.0000 0.0000 -9.7214 9.6062 -23.0234 -3.7871 -7.1250 0.0000 -0.0000 -12.0981 7.0873 10.7618 0.0000 -0.0000 0.0000 78.2830 -3.7210 42.1722 -17.8323 27.9418 -4.4704 0.0000 -0.0000 -15.5034 -33.6180 -23.1511 14.6488 7.1250 -0.0000 -0.0000 -5.0761 -57.0869 1.5058
8.0779 15.9521 -37.7837 -2.5470 -1.2780 8.5390 0.0000 0.0000 0.0000 -15.9846 -4.3061 -40.4021 11.7385 18.2779 65.1575 -0.1769 12.2037 -14.7562 1.7688 -8.3669 -23.8343 0.0000 0.0000 0.0000 29.0995 8.8144 -11.4272 -2.4240 -9.6983 28.0052 -0.6783 9.7261 -15.2022 -0.0264 1.0493 -2.8846 0.8471 1.2734 -2.3245 3.2998 1.6658 -0.9720 2.9529 0.8384 0.2319 -12.9197 -3.2223 -24.0294 7.1706 -1.6792 22.3895 4.5379 -0.9497 11.4567 0.0000 -0.0000 0.0000 -84.0700 9.5881 50.2956 19.3926 -29.9036 -5.2251 -0.0000 0.0000 -10.0215 8.8165 -23.4870 -3.5372 -7.1250 0.0000 -0.0000 -12.5926 6.7115 11.3184 0.0000 -0.0000 0.0000 78.1217 -2.6670 43.0388 -18.3480 28.6005 -4.7147 0.0000 -0.0000 -16.1426 -33.4588 -22.9839 14.4692 7.1250 -0.0000 -0.0000 -4.9205 -56.8607 1.4326
8.0736 15.9165 -37.5401 -2.8407 -1.6776 8.5764 0.0000 0.0000 0.0000 -15.6186 -4.7655 -41.2808 11.0327 17.9510 62.8877 0.1620 10.5028 -17.2301 1.1968 -6.9416 -19.5424 0.0000 0.0000 0.0000 29.6688 8.8161 -10.1210 -2.3603 -9.5794 27.6251 -0.8042 9.4833 -16.3391 -0.1514 2.5074 -6.9101 1.0181 1.4233 -2.0890 3.3801 1.8736 -1.0963 2.9355 0.9435 -0.0342 -12.9439 -2.9898 -24.1313 7.5057 -1.4306 22.7833 4.7272 -0.8055 11.5965 0.0000 -0.0000 0.0000 -84.0241 10.8465 50.5365 19.3068 -29.7982 -5.1824 -0.0000 0.0000 -10.0553 8.2569 -23.2570 -3.2795 -7.1250 0.0000 -0.0000 -12.9336 6.9916 11.5694 0.0000 -0.0000 0.0000 77.9118 -1.9959 44.1988 -18.8874 29.2785 -4.9756 0.0000 -0.0000 -16.7876 -33.5455 -23.1051 14.5842 7.1250 -0.0000 -0.0000 -5.0002 -57.0179 1.4749
8.0708 15.9210 -37.2735 -2.6915 -2.1209 8.4702 0.0000 0.0000 0.0000 -15.7388 -5.1972 -41.8533 10.1839 17.5120 60.1012 0.3299 9.7835 -18.4467 0.9237 -6.1230 -17.1417 0.0000 0.0000 0.0000 29.7094 8.5857 -9.0070 -2.3685 -9.5949 27.6745 -0.9375 8.9599 -17.4569 -0.4545 4.3247 -11.9921 0.7268 1.5533 -1.8510 3.3229 2.0647 -1.2579 3.0333 1.0427 -0.3498 -13.1275 -3.0220 -23.5856 7.3573 -1.4390 22.5499 4.6854 -0.8454 11.4082 0.0000 0.0000 0.0000 -83.9807 12.3683 50.5105 19.2144 -29.6843 -5.1366 -0.0000 0.0000 -9.8058 8.5770 -22.3939 -3.2886 -7.1250 0.0000 -0.0000 -12.7277 7.8067 11.1673 0.0000 0.0000 0.0000 77.7142 -1.5769 45.5252 -19.4008 29.9136 -5.2292 0.0000 -0.0000 -17.4417 -34.0582 -22.7672 14.6600 7.1250 -0.0000 -0.0000 -5.6418 -56.7569 1.6293
8.0718 15.9178 -37.0049 -2.7032 -2.5050 8.3424 0.0000 0.0000 0.0000 -15.6462 -5.6102 -42.2710 9.3149 17.0061 57.1728 0.4449 9.0624 -19.0011 0.6205 -5.0412 -14.0261 0.0000 0.0000 0.0000 29.8952 8.1910 -7.4285 -2.2581 -9.3842 27.0047 -0.9808 8.6891 -17.8029 -0.5887 4.9124 -13.6589 0.6087 1.7652 -1.7175 3.3228 2.3535 -1.2712 3.0983 1.1889 -0.4569 -13.4388 -3.1204 -23.4689 7.4102 -1.4938 22.5467 4.7474 -0.8922 11.3965 -0.0000 0.0000 0.0000 -83.9212 13.5701 50.8373 19.1016 -29.5447 -5.0808 -0.0000 0.0000 -9.9305 9.5216 -21.5586 -3.5268 -7.1250 0.0000 -0.0000 -12.1305 8.5381 10.4381 -0.0000 0.0000 0.0000 77.4278 -1.0074 46.6038 -19.9487 30.5805 -5.5052 0.0000 -0.0000 -18.1813 -34.5990 -22.2123 14.6162 7.1250 -0.0000 -0.0000 -6.3351 -56.2526 1.7532
8.0744 15.9122 -36.7394 -3.0915 -2.7231 8.3051 0.0000 0.0000 0.0000 -15.0952 -6.0545 -42.8574 8.4331 16.4287 54.1080 0.4769 8.5711 -18.8794 0.4462 -4.2855 -11.8814 0.0000 0.0000 0.0000 30.4607 7.6810 -5.7316 -2.0850 -9.0410 25.9235 -0.9951 8.5817 -17.9153 -0.6095 4.9968 -13.8996 1.0052 1.9666 -1.8440 3.4222 2.6064 -1.0850 2.9901 1.3113 -0.1945 -13.5188 -3.2367 -24.0270 7.1479 -1.4767 22.9056 4.6797 -0.9298 11.6379 -0.0000 -0.0000 0.0000 -83.9632 14.2836 51.0851 18.7936 -29.1614 -4.9299 -0.0000 0.0000 -9.9910 10.4776 -21.7458 -3.9196 -7.1250 0.0000 -0.0000 -11.5329 8.2594 9.9660 -0.0000 -0.0000 0.0000 77.1477 0.0109 47.3570 -20.4941 31.2330 -5.7854 0.0000 -0.0000 -18.7955 -34.6714 -22.3064 14.7104 7.1250 -0.0000 -0.0000 -6.4065 -56.3771 1.7924
8.0809 15.9204 -36.4704 -3.6852 -2.7965 8.4429 0.0000 0.0000 0.0000 -14.3077 -6.5675 -43.5265 7.5294 15.7620 50.8493 0.4900 8.0570 -18.5462 0.4613 -4.3565 -12.0818 0.0000 0.0000 0.0000 31.1825 7.0176 -4.3208 -1.9010 -8.6567 24.7272 -1.0125 8.2911 -18.0393 -0.7633 5.5793 -15.5684 1.7375 2.1591 -2.1235 3.5871 2.8352 -0.9714 2.7683 1.4219 0.0952 -13.3557 -3.4068 -24.7969 6.5445 -1.4985 23.4853 4.4402 -1.0148 12.0087 -0.0000 0.0000 0.0000 -84.0425 15.0306 51.2027 18.4942 -28.7853 -4.7848 -0.0000 0.0000 -9.8993 10.9872 -21.8732 -4.1371 -7.1250 0.0000 -0.0000 -11.2155 8.0811 9.7206 -0.0000 0.0000 0.0000 76.7824 0.9583 47.8066 -21.1186 31.9666 -6.1126 0.0000 -0.0000 -19.1592 -34.4656 -22.4676 14.6984 7.1250 -0.0000 -0.0000 -6.1506 -56.5124 1.7406
8.0873 15.9216 -36.2030 -4.1111 -3.0249 8.6116 0.0000 0.0000 0.0000 -13.6972 -7.0231 -43.9603 6.6005 14.9860 47.3465 0.5189 7.3841 -18.2677 0.4777 -4.4326 -12.2969 0.0000 0.0000 0.0000 31.6538 6.4869 -2.8418 -1.7161 -8.2479 23.4695 -1.0177 8.1052 -18.0689 -0.8615 5.9188 -16.5490 2.2163 2.3208 -2.3630 3.6928 3.0251 -0.8751 2.6276 1.5156 0.3402 -13.2862 -3.5370 -25.2182 6.1502 -1.5302 23.5213 4.2728 -1.0727 12.1058 0.0000 0.0000 0.0000 -84.0727 15.8456 51.0592 18.3968 -28.6623 -4.7380 -0.0000 0.0000 -9.8828 11.4557 -22.4395 -4.4231 -7.1250 0.0000 -0.0000 -10.9358 7.4695 9.6025 0.0000 0.0000 0.0000 76.4637 1.9259 48.3592 -21.8117 32.7636 -6.4837 0.0000 -0.0000 -19.4289 -35.2205 -23.5416 15.7469 7.1250 -0.0000 -0.0000 -6.8913 -57.9182 2.1856
